# xmcd
#
# Track frame offsets: 
#        150
#        18630
#        35155
#        48347
#        65747
#        77495
#        88892
#        100847
#        117650
#        130907
#
# Disc length: 1943 seconds
#
# Revision: 2
# Processed by: cddbd v1.5.2PL0 Copyright (c) Steve Scherf et al.
# Submitted via: ExactAudioCopy v0.99pb4
#
DISCID=8c07950a
DTITLE=Catfish Keith - Pepper In My Shoe
DYEAR=1991
DGENRE=Blues
TTITLE0=Jealous Hearted, See
TTITLE1=Knockin' Myself Out
TTITLE2=Saturday Night Stroll
TTITLE3=Oh, Mr. Catfish
TTITLE4=Daddy, Where You Been?
TTITLE5=Pepper in My Shoe!
TTITLE6=You Got To Move
TTITLE7=Tell Me, Baby
TTITLE8=Nineteen Bird Dogs
TTITLE9=Howlin' Tom Cat
EXTD=
EXTT0=
EXTT1=
EXTT2=
EXTT3=
EXTT4=
EXTT5=
EXTT6=
EXTT7=
EXTT8=
EXTT9=
PLAYORDER=
